<?xml version="1.0" encoding="UTF-8" standalone="no"?>
<!-- Created with Inkscape (http://www.inkscape.org/) -->

<svg
   width="766.5"
   height="196.16"
   viewBox="0 0 766.5 196.16"
   version="1.1"
   id="svg1"
   xml:space="preserve"
   inkscape:version="1.4.2 (f4327f4, 2025-05-13)"
   sodipodi:docname="logo inkscape.svg"
   xmlns:inkscape="http://www.inkscape.org/namespaces/inkscape"
   xmlns:sodipodi="http://sodipodi.sourceforge.net/DTD/sodipodi-0.dtd"
   xmlns="http://www.w3.org/2000/svg"
   xmlns:svg="http://www.w3.org/2000/svg"><sodipodi:namedview
     id="namedview1"
     pagecolor="#b6b6b6"
     bordercolor="#000000"
     borderopacity="0.25"
     inkscape:showpageshadow="2"
     inkscape:pageopacity="0.0"
     inkscape:pagecheckerboard="0"
     inkscape:deskcolor="#d1d1d1"
     inkscape:document-units="px"
     inkscape:zoom="0.5"
     inkscape:cx="676"
     inkscape:cy="105"
     inkscape:window-width="1920"
     inkscape:window-height="1051"
     inkscape:window-x="-9"
     inkscape:window-y="-9"
     inkscape:window-maximized="1"
     inkscape:current-layer="g21"><inkscape:page
       x="0"
       y="0"
       width="766.5"
       height="196.16"
       id="page56"
       margin="0"
       bleed="0" /></sodipodi:namedview><defs
     id="defs1"><linearGradient
       id="swatch2"
       inkscape:swatch="solid"><stop
         style="stop-color:#fa39ff;stop-opacity:1;"
         offset="0"
         id="stop2" /></linearGradient></defs><g
     inkscape:groupmode="layer"
     id="layer2"
     inkscape:label="Logo Name"
     transform="translate(-427.40833,-230.9169)"><g
       id="g67"
       transform="translate(-927.75795,-16.767002)"
       inkscape:label="Logo Name Colored"><path
         d="m 1615.2122,273.08544 c -48.576,1.536 -72.768,37.44 -72.96,73.344 -0.192,36.288 24.192,72.384 72.96,73.92 48.576,-1.152 72.768,-37.248 72.768,-73.536 0,-36.288 -24.192,-72.576 -72.768,-73.728 z m 33.216,73.728 c -0.384,21.696 -16.704,32.64 -33.216,32.64 -16.32,0 -32.832,-10.944 -33.216,-32.64 0.192,-21.696 16.704,-32.64 33.216,-32.64 16.512,0 33.216,10.944 33.216,32.64 z m 181.8641,56.064 c 0.768,-5.376 -0.768,-10.752 -4.032,-14.976 l -34.176,-43.968 33.216,-36.288 c 7.488,-8.256 6.912,-21.12 -1.344,-28.608 -3.84,-3.456 -8.832,-5.184 -13.632,-5.184 -5.568,0 -10.944,2.112 -14.976,6.528 l -28.992,31.872 v -18.24 c 0,-11.136 -9.216,-20.16 -20.352,-20.16 -11.136,0 -20.16,9.024 -20.16,20.16 v 106.368 c 0,11.136 9.024,20.16 20.16,20.16 11.136,0 20.352,-9.024 20.352,-20.16 v -23.616 l 28.032,35.904 c 3.84,4.992 9.6,7.872 15.936,7.872 10.176,0 18.816,-7.488 19.968,-17.664 z m 111.2079,-88.704 h 21.696 c 11.136,0 20.352,-9.024 20.352,-20.16 0,-11.136 -9.216,-20.16 -20.352,-20.16 h -83.904 c -11.136,0 -20.16,9.024 -20.16,20.16 0,11.136 9.024,20.16 20.16,20.16 h 21.888 v 86.208 c 0,11.136 9.024,20.16 20.16,20.16 11.136,0 20.16,-9.024 20.16,-20.16 z m 151.2381,4.608 c -12.1154,-6.2916 -31.9772,12.97638 -38.494,28.032 -5.5611,-14.43465 -25.1248,-38.62843 -41.088,-28.032 -29.4062,19.51996 3.0629,102.07399 41.088,101.952 33.126,-0.10627 70.7849,-85.18317 38.494,-101.952 z"
         id="path56"
         style="font-weight:bold;font-size:192px;font-family:Qilka;-inkscape-font-specification:'Qilka Bold';letter-spacing:25px;fill:#ff579b;fill-opacity:1;stroke-width:8;stroke-linecap:round;stroke-linejoin:round"
         aria-label="OKTv"
         sodipodi:nodetypes="cccsccscsccccccsccssssssccsccsssssscssscscsss"
         inkscape:label="Name" /><g
         id="g66"
         transform="matrix(0.37097686,0,0,0.37097686,1336.9184,244.16047)"
         inkscape:label="Icon"
         style="fill:#ffffff;fill-opacity:1"><path
           style="fill:#ff579b;fill-opacity:1;stroke-width:23.9966;stroke-linecap:round;stroke-linejoin:round;stroke-dasharray:none;paint-order:normal"
           d="M 231.0347,204.74557 117.28859,349.12704 c -22.067652,37.2406 26.27902,74.75011 57.14795,49.20335 L 312.10263,281.3018 c 1.44143,-1.22534 1.05277,-3.50526 -0.24465,-4.75252 0,0 -49.39313,-49.94343 -75.84508,-72.99319 -2.01827,-1.75869 -3.8825,-0.20133 -4.9782,1.18948 z"
           id="path57"
           sodipodi:nodetypes="sccssss"
           inkscape:label="Handle" /><path
           style="fill:#ff579b;fill-opacity:1;stroke-width:23.9966;stroke-linecap:round;stroke-linejoin:round;stroke-dasharray:none;paint-order:normal"
           d="m 246.7374,194.53958 c -2.49591,-2.36369 -4.13658,-4.54627 -3.14019,-11.67021 1.95988,-14.01263 6.0577,-26.06308 12.63102,-36.83851 0.99536,-1.63166 2.81018,-1.42736 4.25329,-0.0469 l 111.89897,107.04157 c 1.84158,1.76164 1.66219,3.39693 -0.51271,5.00736 -10.05357,7.44431 -21.74109,11.76831 -34.76021,13.73526 -4.85641,0.73372 -8.84898,-0.0258 -12.46697,-3.45218 z"
           id="path58"
           sodipodi:nodetypes="sssssssss"
           inkscape:label="Bottom Head" /><path
           style="fill:#ff579b;fill-opacity:1;stroke-width:23.9966;stroke-linecap:round;stroke-linejoin:round;stroke-dasharray:none;paint-order:normal"
           d="m 384.3281,242.47264 c 1.75889,1.66826 4.0758,1.47433 5.13992,-0.0199 65.30515,-91.70089 -50.06485,-171.652791 -118.62139,-112.75715 -1.65004,1.41752 -2.14198,3.1114 -1.09689,4.10264 z"
           id="path59"
           sodipodi:nodetypes="sssss"
           inkscape:label="Top Head" /><path
           style="fill:#ff579b;fill-opacity:1;stroke-width:23.9966;stroke-linecap:round;stroke-linejoin:round;stroke-dasharray:none;paint-order:normal"
           d="m 130.97263,400.57274 -13.9902,-14.2011 c -28.771843,31.31588 6.0792,103.70959 80.49635,72.88025 25.7807,-14.17098 44.32762,-37.17132 64.77203,-56.05452 40.70963,-37.60089 78.40754,17.05523 48.83679,47.14954 -6.04898,6.15609 -11.08412,5.9136 -13.77928,9.84235 -6.48144,9.44801 3.95992,18.25968 12.60758,15.13846 5.85544,-2.11341 10.28779,-6.49131 15.4585,-11.24506 46.30437,-42.5704 -10.68773,-135.02496 -75.49683,-77.38294 -28.46744,25.3193 -54.1365,53.54658 -67.86534,56.99189 -28.2893,9.05973 -67.73409,-13.56712 -51.0396,-43.11887 z"
           id="path60"
           sodipodi:nodetypes="cccsssssscc"
           inkscape:label="Wire" /><g
           id="g65"
           inkscape:label="Stars"
           style="fill:#ffffff;fill-opacity:1"><path
             sodipodi:type="star"
             style="display:inline;fill:#a66bfd;fill-opacity:0.996078;stroke-width:23.9966;stroke-linecap:round;stroke-linejoin:round;stroke-dasharray:none;paint-order:normal"
             id="path61"
             inkscape:flatsided="false"
             sodipodi:sides="4"
             sodipodi:cx="460.48022"
             sodipodi:cy="260.8905"
             sodipodi:r1="29.039909"
             sodipodi:r2="14.557369"
             sodipodi:arg1="0.19291932"
             sodipodi:arg2="0.90794525"
             inkscape:rounded="0.2"
             inkscape:randomized="0"
             d="m 488.98141,266.45818 c -0.49906,4.05264 -16.15574,3.6269 -19.54307,5.90704 -3.71326,2.49953 -10.08319,17.57354 -14.52579,17.02646 -4.05264,-0.49905 -3.62691,-16.15573 -5.90704,-19.54306 -2.49953,-3.71326 -17.57354,-10.08319 -17.02647,-14.52579 0.49906,-4.05264 16.15574,-3.62691 19.54306,-5.90704 3.71327,-2.49953 10.0832,-17.57355 14.5258,-17.02647 4.05264,0.49906 3.62691,16.15574 5.90704,19.54306 2.49953,3.71326 17.57354,10.0832 17.02647,14.5258 z"
             inkscape:transform-center-x="0.21599319"
             inkscape:transform-center-y="-0.52120568"
             inkscape:label="Star"
             transform="translate(-18.74733,15.340586)" /><path
             sodipodi:type="star"
             style="display:inline;fill:#a66bfd;fill-opacity:0.996078;stroke-width:23.9966;stroke-linecap:round;stroke-linejoin:round;stroke-dasharray:none;paint-order:normal"
             id="path64"
             inkscape:flatsided="false"
             sodipodi:sides="4"
             sodipodi:cx="460.48022"
             sodipodi:cy="260.8905"
             sodipodi:r1="29.039909"
             sodipodi:r2="14.557369"
             sodipodi:arg1="0.19291932"
             sodipodi:arg2="0.90794525"
             inkscape:rounded="0.2"
             inkscape:randomized="0"
             d="m 488.98141,266.45818 c -0.49906,4.05264 -16.15574,3.6269 -19.54307,5.90704 -3.71326,2.49953 -10.08319,17.57354 -14.52579,17.02646 -4.05264,-0.49905 -3.62691,-16.15573 -5.90704,-19.54306 -2.49953,-3.71326 -17.57354,-10.08319 -17.02647,-14.52579 0.49906,-4.05264 16.15574,-3.62691 19.54306,-5.90704 3.71327,-2.49953 10.0832,-17.57355 14.5258,-17.02647 4.05264,0.49906 3.62691,16.15574 5.90704,19.54306 2.49953,3.71326 17.57354,10.0832 17.02647,14.5258 z"
             inkscape:transform-center-x="0.21599319"
             inkscape:transform-center-y="-0.52120568"
             inkscape:label="Star"
             transform="matrix(1.9097606,-0.77726767,0.77726767,1.9097606,-929.36976,25.009562)" /><path
             sodipodi:type="star"
             style="display:inline;fill:#fec34b;fill-opacity:1;stroke-width:23.9966;stroke-linecap:round;stroke-linejoin:round;stroke-dasharray:none;paint-order:normal"
             id="path65"
             inkscape:flatsided="false"
             sodipodi:sides="4"
             sodipodi:cx="460.48022"
             sodipodi:cy="260.8905"
             sodipodi:r1="29.039909"
             sodipodi:r2="14.557369"
             sodipodi:arg1="0.19291932"
             sodipodi:arg2="0.90794525"
             inkscape:rounded="0.2"
             inkscape:randomized="0"
             d="m 488.98141,266.45818 c -0.49906,4.05264 -16.15574,3.6269 -19.54307,5.90704 -3.71326,2.49953 -10.08319,17.57354 -14.52579,17.02646 -4.05264,-0.49905 -3.62691,-16.15573 -5.90704,-19.54306 -2.49953,-3.71326 -17.57354,-10.08319 -17.02647,-14.52579 0.49906,-4.05264 16.15574,-3.62691 19.54306,-5.90704 3.71327,-2.49953 10.0832,-17.57355 14.5258,-17.02647 4.05264,0.49906 3.62691,16.15574 5.90704,19.54306 2.49953,3.71326 17.57354,10.0832 17.02647,14.5258 z"
             inkscape:transform-center-x="0.21599319"
             inkscape:transform-center-y="-0.52120568"
             inkscape:label="Star"
             transform="matrix(2.0944824,0.01280052,-0.01280052,2.0944824,-504.73881,-420.87386)" /></g></g></g></g></svg>
